<?xml version="1.0" encoding="UTF-8" ?>
<!DOCTYPE svg PUBLIC "-//W3C//DTD SVG 1.1//EN" "http://www.w3.org/Graphics/SVG/1.1/DTD/svg11.dtd">
<svg width="612pt" height="792pt" viewBox="0 0 612 792" version="1.1" xmlns="http://www.w3.org/2000/svg">
<path fill="#ffffff" d=" M 0.00 0.00 L 612.00 0.00 L 612.00 792.00 L 0.00 792.00 L 0.00 0.00 Z" />
<path fill="#0d0d0d" d=" M 329.27 212.02 C 329.47 208.77 334.04 207.10 336.06 209.82 C 337.61 211.20 336.89 213.34 336.57 215.08 C 335.31 220.34 334.27 225.65 332.96 230.89 C 338.40 228.31 345.15 227.18 350.58 230.41 C 358.27 234.11 359.99 244.05 357.41 251.52 C 356.28 256.02 355.55 260.64 354.01 265.03 C 351.57 266.31 347.76 266.15 347.01 262.96 C 347.24 256.53 350.16 250.48 350.51 244.06 C 350.82 240.18 348.27 235.67 344.10 235.32 C 338.84 234.81 334.58 238.54 330.49 241.28 C 329.25 246.51 328.33 251.83 326.83 256.99 C 325.47 260.96 318.77 259.19 319.53 255.08 C 322.61 240.69 326.04 226.37 329.27 212.02 Z" />
<path fill="#0d0d0d" d=" M 292.62 211.76 C 297.20 210.54 302.06 210.94 306.52 212.39 C 309.72 213.76 308.19 218.70 304.88 218.65 C 300.10 218.67 295.12 217.48 290.51 219.35 C 286.31 220.93 281.18 223.92 281.39 229.07 C 282.50 231.59 285.52 232.14 287.94 232.61 C 294.91 233.17 302.15 232.61 308.79 235.25 C 313.53 237.67 317.47 242.46 317.03 248.05 C 316.89 254.27 312.04 259.13 306.79 261.76 C 299.30 265.03 290.58 264.32 283.02 261.64 C 280.33 260.49 276.79 259.34 276.31 256.00 C 276.57 252.86 280.52 251.76 282.85 253.44 C 288.10 256.94 294.78 257.29 300.85 256.25 C 304.90 255.50 308.69 252.30 309.01 248.01 C 309.26 244.26 305.72 241.64 302.45 240.77 C 295.56 239.06 288.14 241.11 281.41 238.45 C 277.84 236.89 273.91 234.25 273.69 229.96 C 272.70 226.02 275.11 222.41 277.41 219.47 C 281.05 214.79 287.01 212.84 292.62 211.76 Z" />
<path fill="#0d0d0d" d=" M 258.05 241.01 C 257.23 237.34 261.51 233.74 264.96 235.31 C 266.41 235.80 266.48 237.47 266.65 238.74 C 267.40 249.08 268.83 259.50 267.54 269.86 C 267.28 273.21 263.12 275.47 260.17 273.94 C 253.25 270.49 246.87 266.10 240.28 262.08 C 239.92 269.09 240.04 276.10 239.97 283.11 C 240.26 285.74 238.55 288.33 235.97 288.96 C 232.21 289.87 229.38 286.39 226.44 284.65 C 219.81 279.32 212.58 274.48 207.17 267.84 C 205.22 263.91 211.77 260.07 214.66 263.03 C 219.68 268.54 225.34 273.43 231.40 277.78 C 231.79 270.17 231.82 262.56 232.07 254.96 C 232.29 252.10 235.33 250.35 237.97 250.45 C 240.26 251.09 241.92 253.00 243.93 254.20 C 249.11 257.51 254.21 260.95 259.49 264.11 C 259.58 256.38 258.73 248.69 258.05 241.01 Z" />
<path fill="#0d0d0d" d=" M 375.55 248.78 C 382.08 247.17 389.36 249.08 394.36 253.56 C 399.72 258.56 400.54 267.40 396.31 273.37 C 391.10 280.30 381.14 282.76 373.11 279.76 C 365.54 277.33 359.69 269.10 361.64 261.08 C 363.14 254.52 369.32 250.27 375.55 248.78 Z" />
<path fill="#ffffff" d=" M 376.49 255.70 C 380.68 253.99 385.99 254.45 389.47 257.49 C 392.77 260.69 392.55 266.20 389.67 269.60 C 385.61 274.12 378.48 276.06 372.98 273.06 C 370.21 271.52 368.42 268.53 368.32 265.38 C 368.73 260.82 372.31 257.17 376.49 255.70 Z" />
<path fill="#0d0d0d" d=" M 406.52 270.59 C 414.67 268.39 424.49 271.53 428.82 279.03 C 433.49 287.41 428.46 298.86 419.45 301.71 C 409.31 306.18 395.14 300.56 393.07 289.12 C 391.07 280.42 398.20 272.17 406.52 270.59 Z" />
<path fill="#0d0d0d" d=" M 284.93 279.22 C 295.60 277.87 305.08 271.43 316.02 271.50 C 330.02 271.01 343.37 275.90 356.11 281.15 C 349.47 283.64 343.02 286.58 336.51 289.36 C 329.44 292.35 321.87 296.45 318.86 303.95 C 334.86 310.84 349.57 320.81 361.62 333.40 C 372.29 344.92 381.42 357.96 387.86 372.31 C 397.32 363.18 406.22 353.45 415.98 344.63 C 421.63 359.71 425.03 375.92 423.70 392.08 C 422.82 403.73 419.48 415.14 414.33 425.61 C 405.63 443.22 391.48 457.15 378.42 471.51 C 370.37 479.46 362.57 487.97 352.60 493.56 C 345.36 497.98 337.22 500.53 329.18 503.05 C 319.76 505.87 309.87 506.59 300.08 506.10 C 283.18 506.03 266.74 500.76 251.66 493.44 C 240.95 488.01 231.30 480.65 222.87 472.12 C 215.32 465.06 208.89 456.88 203.57 448.04 C 192.29 429.16 186.46 406.91 187.36 384.92 C 188.04 375.26 189.50 365.48 193.37 356.54 C 199.50 339.72 210.18 324.27 224.78 313.73 C 236.02 306.46 245.63 296.89 257.17 290.04 C 265.80 285.05 275.11 281.10 284.93 279.22 Z" />
<path fill="#0d0d0d" d=" M 194.06 276.06 C 202.31 273.42 211.47 279.03 214.39 286.86 C 217.40 293.78 216.78 302.77 211.07 308.14 C 206.50 312.85 198.67 312.99 193.36 309.46 C 186.07 304.80 183.17 295.20 184.90 286.98 C 186.18 282.30 189.30 277.69 194.06 276.06 Z" />
<path fill="#ffffff" d=" M 409.21 277.18 C 412.87 276.03 417.04 276.59 420.22 278.76 C 422.98 280.60 424.42 284.28 423.35 287.47 C 421.15 296.03 408.91 299.22 402.42 293.53 C 400.15 291.39 399.26 288.06 399.95 285.05 C 401.37 281.03 405.05 278.03 409.21 277.18 Z" />
<path fill="#5d5d5d" d=" M 356.11 281.15 C 373.04 289.36 388.48 300.98 399.86 316.07 C 406.56 324.76 411.84 334.48 415.98 344.63 C 406.22 353.45 397.32 363.18 387.86 372.31 C 381.42 357.96 372.29 344.92 361.62 333.40 C 349.57 320.81 334.86 310.84 318.86 303.95 C 321.87 296.45 329.44 292.35 336.51 289.36 C 343.02 286.58 349.47 283.64 356.11 281.15 Z" />
<path fill="#ffffff" d=" M 196.21 282.21 C 205.09 280.37 211.34 291.21 209.18 298.94 C 208.45 303.54 203.27 306.83 198.86 304.87 C 192.91 302.31 190.08 295.04 191.09 288.91 C 191.74 286.13 193.33 283.15 196.21 282.21 Z" />
<path fill="#5d5d5d" d=" M 265.32 296.13 C 266.55 295.28 267.26 295.53 267.45 296.88 C 266.21 297.73 265.50 297.48 265.32 296.13 Z" />
<path fill="#5d5d5d" d=" M 255.33 298.91 C 258.09 297.41 261.28 297.20 264.35 296.99 C 261.67 298.66 258.35 298.50 255.33 298.91 Z" />
<path fill="#5d5d5d" d=" M 253.27 299.11 C 256.13 297.39 253.59 302.45 253.27 299.11 Z" />
<path fill="#0d0d0d" d=" M 427.31 302.82 C 428.23 299.21 432.66 297.83 435.94 298.80 C 442.23 300.08 445.82 306.17 448.36 311.53 C 449.63 315.21 452.09 319.28 450.09 323.15 C 447.68 323.31 445.32 321.94 444.66 319.55 C 443.60 315.34 442.13 311.08 439.17 307.81 C 437.91 306.32 435.79 306.95 434.13 306.97 C 432.64 313.31 437.63 318.86 438.30 325.07 C 439.64 329.81 436.40 336.22 431.00 336.04 C 424.89 335.73 419.67 331.08 417.15 325.72 C 414.53 320.31 412.64 314.13 413.78 308.11 C 413.99 305.08 418.27 305.47 419.25 307.78 C 421.20 310.47 419.87 313.90 420.57 316.92 C 421.31 320.24 422.17 323.89 424.76 326.29 C 426.27 327.45 428.67 328.89 430.41 327.37 C 432.36 325.39 431.25 322.41 430.60 320.13 C 428.83 314.56 425.59 308.82 427.31 302.82 Z" />
<path fill="#0d0d0d" d=" M 161.12 313.09 C 164.32 308.96 169.77 306.83 174.93 307.68 C 179.16 308.18 183.03 310.18 186.52 312.53 C 190.28 315.02 194.29 317.14 197.97 319.76 C 200.59 321.26 199.92 325.65 197.06 326.49 C 194.34 327.10 192.18 325.06 190.01 323.81 C 185.86 321.29 181.87 318.46 177.51 316.30 C 173.79 314.51 167.94 314.74 166.20 319.12 C 163.92 324.06 166.81 329.14 168.03 333.95 C 172.90 337.09 177.93 340.00 182.76 343.21 C 185.22 344.52 185.16 348.55 182.62 349.75 C 180.81 350.89 178.80 349.77 177.23 348.79 C 163.87 340.44 150.46 332.17 137.11 323.81 C 135.00 322.56 134.41 319.08 136.56 317.57 C 137.94 316.33 140.07 316.47 141.53 317.50 C 147.07 320.93 152.64 324.31 158.13 327.83 C 157.77 322.83 157.55 317.09 161.12 313.09 Z" />
<path fill="#ffffff" d=" M 271.17 314.18 C 277.22 310.61 285.32 311.97 290.49 316.46 C 291.75 318.12 292.73 319.97 293.85 321.72 C 296.88 318.28 301.00 314.84 305.93 315.77 C 313.90 315.62 321.04 322.64 321.35 330.51 C 326.05 326.85 333.00 326.86 338.06 329.78 C 344.25 332.95 347.12 340.74 345.47 347.33 C 352.17 345.62 359.67 348.70 363.39 354.50 C 366.09 359.52 366.45 366.19 362.47 370.67 C 365.60 371.69 369.30 371.80 371.75 374.28 C 376.16 378.07 379.18 384.35 377.18 390.13 C 376.49 393.54 373.97 396.18 370.85 397.54 C 375.55 399.76 379.76 403.60 380.83 408.89 C 381.32 413.22 380.61 418.14 377.39 421.35 C 375.39 423.45 372.48 424.08 369.83 424.98 C 373.40 428.63 376.73 433.69 374.98 439.02 C 373.69 445.85 365.52 450.92 359.00 448.44 C 361.18 453.15 362.11 458.95 359.31 463.61 C 354.90 469.48 345.95 471.20 339.76 467.10 C 340.51 470.94 339.98 475.32 337.41 478.40 C 331.30 484.21 320.40 483.76 315.00 477.21 C 314.24 479.25 313.84 481.57 312.38 483.25 C 310.51 484.68 308.57 486.03 306.59 487.30 C 301.59 488.36 296.99 485.36 292.73 483.20 C 292.31 483.24 291.46 483.32 291.03 483.36 C 289.58 481.59 288.21 479.77 286.87 477.94 C 284.31 481.90 279.69 484.70 274.87 483.94 C 267.29 483.49 260.81 477.00 259.92 469.54 C 251.80 474.98 238.91 470.59 236.39 460.98 C 235.23 458.27 235.67 455.38 236.26 452.60 C 231.24 453.22 225.72 452.72 221.83 449.17 C 218.22 445.61 217.58 440.33 217.72 435.52 L 216.79 434.43 C 217.55 432.77 218.29 431.10 219.08 429.45 C 211.61 428.63 204.86 422.61 204.10 414.98 C 204.20 412.41 204.80 409.88 205.70 407.48 C 206.66 405.19 209.17 404.25 211.05 402.89 C 205.35 400.66 201.75 395.11 201.12 389.14 C 199.43 382.44 205.48 376.59 211.72 375.56 C 205.46 370.99 204.01 361.24 209.25 355.38 C 212.55 351.52 217.90 351.54 222.54 351.73 C 216.70 344.34 222.08 330.97 231.89 331.02 C 235.31 330.53 238.45 332.06 241.51 333.32 C 241.33 332.76 240.98 331.63 240.81 331.07 C 241.33 327.89 241.44 324.31 243.93 321.93 C 247.37 318.80 252.16 316.73 256.88 317.63 C 260.29 318.55 263.39 320.39 266.00 322.77 C 267.11 319.62 268.18 316.08 271.17 314.18 Z" />
<path fill="#0d0d0d" d=" M 430.10 337.93 C 443.06 332.88 456.04 327.86 469.06 322.95 C 472.67 321.29 475.46 327.21 472.12 329.12 C 466.71 331.46 461.12 333.39 455.61 335.46 C 459.71 338.20 464.02 341.79 464.52 347.07 C 465.93 353.67 461.03 359.92 455.19 362.40 C 450.42 364.30 445.63 366.20 440.80 367.92 C 437.32 369.08 434.78 363.61 437.98 361.73 C 443.00 359.23 448.53 357.86 453.56 355.37 C 457.01 353.66 459.68 349.06 457.29 345.47 C 454.84 341.71 450.13 340.77 446.25 339.18 C 441.17 340.96 436.29 343.44 431.06 344.69 C 427.47 344.55 426.76 339.02 430.10 337.93 Z" />
<path fill="#4c9a10" d=" M 255.20 340.15 C 257.41 336.52 261.73 334.20 266.01 335.06 C 275.68 336.65 283.96 342.21 292.61 346.45 C 303.08 352.72 314.90 356.08 326.01 360.98 C 333.94 363.90 341.28 369.95 350.18 368.82 C 352.36 369.89 354.65 372.38 353.89 375.01 C 352.44 379.78 349.90 384.13 348.17 388.80 C 346.70 392.51 343.40 394.97 340.77 397.83 C 338.29 400.62 334.49 401.45 331.58 403.65 C 327.02 406.82 321.64 409.60 315.93 409.15 C 309.41 407.67 303.53 404.11 296.95 402.80 C 290.61 401.52 283.87 401.94 277.88 399.16 C 274.84 397.94 272.34 395.77 270.16 393.38 C 267.58 390.73 264.63 388.39 262.71 385.18 C 258.27 378.02 255.61 369.96 252.79 362.07 C 252.04 359.99 251.65 357.80 251.48 355.60 C 251.17 350.24 252.40 344.75 255.20 340.15 Z" />
<path fill="#7dc838" d=" M 264.28 337.32 C 268.23 336.13 270.70 339.34 272.37 342.30 C 288.29 349.52 303.69 358.08 320.38 363.49 C 328.75 366.60 337.08 371.20 342.36 378.59 C 344.56 381.89 340.81 384.67 338.90 386.95 C 336.31 390.21 331.87 390.65 328.02 390.15 C 312.49 387.48 298.66 379.45 284.93 372.13 C 276.68 367.17 267.46 363.43 260.63 356.45 C 257.27 353.00 257.60 347.67 259.51 343.59 C 260.64 341.27 261.38 337.97 264.28 337.32 Z" />
<path fill="#0d0d0d" d=" M 136.67 345.73 C 139.23 343.84 142.65 347.03 141.43 349.83 C 139.39 353.65 136.59 357.29 136.29 361.78 C 136.07 365.63 136.76 370.38 140.41 372.51 C 143.48 373.67 145.78 370.52 147.38 368.39 C 151.06 362.10 154.00 353.98 161.44 351.32 C 165.50 349.56 170.32 350.49 173.84 353.03 C 178.10 355.80 179.69 361.18 180.03 365.99 C 179.72 372.69 176.25 378.96 171.57 383.64 C 169.20 385.94 166.44 388.51 162.87 388.14 C 162.22 387.13 160.80 386.40 160.98 385.04 C 160.83 382.81 162.96 381.65 164.54 380.59 C 168.64 377.99 170.82 373.38 172.39 368.96 C 173.79 365.20 172.42 360.48 168.88 358.43 C 165.88 356.44 162.04 358.16 159.82 360.53 C 154.82 366.07 153.72 374.80 146.63 378.47 C 142.57 381.16 136.84 379.88 133.79 376.24 C 130.91 372.83 128.93 368.48 129.22 363.94 C 129.66 357.31 131.40 350.20 136.67 345.73 Z" />
<path fill="#d1b0b0" d=" M 236.86 359.73 C 241.37 357.34 246.36 355.81 251.48 355.60 C 251.65 357.80 252.04 359.99 252.79 362.07 C 255.61 369.96 258.27 378.02 262.71 385.18 C 264.63 388.39 267.58 390.73 270.16 393.38 C 267.17 397.10 264.13 401.15 263.54 406.04 C 263.08 410.32 263.02 414.66 263.28 418.96 C 264.01 425.42 266.74 431.40 269.51 437.21 C 270.42 439.18 271.69 440.96 273.13 442.58 C 265.82 442.25 258.47 441.48 251.41 439.51 C 244.92 437.81 239.69 433.46 234.27 429.74 C 227.87 424.42 223.78 416.94 220.03 409.64 C 218.63 407.32 218.72 404.57 218.12 402.02 C 216.02 394.88 217.74 387.36 219.30 380.29 C 221.79 371.12 229.66 365.19 236.86 359.73 Z" />
<path fill="#0d0d0d" d=" M 487.13 368.10 C 493.66 365.76 496.80 377.16 490.84 379.49 C 484.65 380.84 481.98 370.90 487.13 368.10 Z" />
<path fill="#0d0d0d" d=" M 469.08 372.11 C 471.78 371.75 475.20 370.16 477.36 372.69 C 479.83 375.25 479.19 380.91 475.19 381.42 C 464.45 383.35 453.72 385.34 442.96 387.19 C 437.56 388.00 435.91 378.40 441.19 377.24 C 450.44 375.31 459.80 373.91 469.08 372.11 Z" />
<path fill="#d62503" d=" M 348.17 388.80 C 354.59 393.17 359.97 399.53 361.81 407.22 C 363.40 414.29 363.93 421.74 362.45 428.88 C 360.71 437.27 355.20 444.58 348.00 449.10 C 340.73 453.66 332.40 456.54 323.87 457.46 C 312.31 459.54 299.90 459.85 288.92 455.10 C 282.64 452.41 277.60 447.63 273.13 442.58 C 271.69 440.96 270.42 439.18 269.51 437.21 C 266.74 431.40 264.01 425.42 263.28 418.96 C 263.02 414.66 263.08 410.32 263.54 406.04 C 264.13 401.15 267.17 397.10 270.16 393.38 C 272.34 395.77 274.84 397.94 277.88 399.16 C 283.87 401.94 290.61 401.52 296.95 402.80 C 303.53 404.11 309.41 407.67 315.93 409.15 C 321.64 409.60 327.02 406.82 331.58 403.65 C 334.49 401.45 338.29 400.62 340.77 397.83 C 343.40 394.97 346.70 392.51 348.17 388.80 Z" />
<path fill="#d1b0b0" d=" M 378.42 471.51 C 391.48 457.15 405.63 443.22 414.33 425.61 C 418.66 435.92 417.31 448.16 411.95 457.86 C 403.69 473.23 390.54 485.20 376.90 495.73 C 368.58 501.94 360.13 508.20 350.48 512.20 C 338.90 516.67 326.39 518.92 313.97 518.52 C 297.06 518.98 280.37 515.57 263.97 511.84 C 247.23 507.54 230.40 502.43 215.55 493.37 C 206.40 487.71 198.00 479.15 196.40 468.10 C 195.26 460.59 199.23 453.78 203.57 448.04 C 208.89 456.88 215.32 465.06 222.87 472.12 C 231.30 480.65 240.95 488.01 251.66 493.44 C 266.74 500.76 283.18 506.03 300.08 506.10 C 309.87 506.59 319.76 505.87 329.18 503.05 C 337.22 500.53 345.36 497.98 352.60 493.56 C 362.57 487.97 370.37 479.46 378.42 471.51 Z" />
</svg>
